<?xml version="1.0" encoding="UTF-8"?><!DOCTYPE svg PUBLIC "-//W3C//DTD SVG 1.1//EN" "http://www.w3.org/Graphics/SVG/1.1/DTD/svg11.dtd"><svg xmlns="http://www.w3.org/2000/svg" xmlns:xlink="http://www.w3.org/1999/xlink" version="1.1" id="Layer_1" x="0px" y="0px" width="24px" height="24px" viewBox="0 0 24 24" xml:space="preserve"><path d="M21.8 11.6c-.1.5-.3.9-.4 1.3-.2.4-.4.7-.6 1.1v.1c.7-.5 1.1-1.3 1.1-2.2 0 0 0-.1-.1-.3z"/><path d="M5.3 9.6c0-.3 0-.6.1-.9 0-.1 0-.2.1-.3 0-.2.1-.4.1-.5 0-.1.1-.3.1-.4 0-.1.1-.3.1-.4.1-.2.1-.3.2-.5 0-.1.1-.2.2-.4s.1-.3.2-.5c.1-.1.1-.2.2-.3-.1-.2 0-.4.1-.5.1-.2.2-.3.3-.4.1-.2.3-.3.4-.5.1-.2.3-.3.4-.5.1 0 .2-.1.2-.1.2-.2.4-.3.6-.5l.1-.1-2.6-1.4c-.4-.3-.9-.4-1.4-.4s-.9.1-1.3.4c-.8.4-1.3 1.3-1.3 2.2v16.7c0 .9.5 1.8 1.3 2.3.8.5 1.8.5 2.6 0l8.1-4.7h-.5c-4.5.1-8.3-3.7-8.3-8.3z"/><path d="M20.9 11.4c.1-.2.1-.4.1-.7 0-.2.1-.5.1-.7v-.4c0-4.1-3.3-7.4-7.4-7.4-1.4 0-2.7.4-3.9 1.1-.5.3-1 .7-1.4 1.1 0 .1-.1.1-.1.2-.2.1-.3.3-.4.4-.1.1-.2.2-.2.3-.1.1-.2.3-.3.4-.1.1-.1.2-.2.3-.1.2-.2.5-.3.7 0 .1-.1.2-.1.3-.1.2-.2.4-.2.5 0 .1-.1.2-.1.3 0 .2-.1.4-.1.6v.3c0 .3-.1.6-.1.9 0 4.1 3.3 7.4 7.4 7.4H14.6c.2 0 .4 0 .5-.1h.2c.2 0 .4-.1.5-.1.1 0 .1 0 .2-.1.2-.1.3-.1.5-.2 0 0 .1 0 .1-.1.2-.1.3-.2.5-.2l.1-.1c.2-.1.3-.2.5-.3l.1-.1c.1-.1.3-.2.4-.3l.1-.1c.1-.1.3-.2.4-.3l.2-.2.3-.3c.1-.1.1-.2.2-.2.1-.1.2-.2.2-.3.1-.1.1-.2.2-.3.1-.1.1-.2.2-.3.1-.1.1-.3.2-.4 0-.1.1-.1.1-.2.1-.2.1-.3.2-.5v-.1c.3-.4.3-.6.4-.8zm-4.8-4c.3-.1.5 0 .6.3.1.3 0 .5-.3.6l-2.6 1v3.5c0 .8-.6 1.4-1.4 1.4H12c-.8 0-1.4-.6-1.4-1.4v-.6c0-.8.6-1.4 1.4-1.4h.9V6.5c0-.2.1-.4.3-.5l2.9-1.1c.3-.1.5 0 .6.3.1.3 0 .5-.3.6l-2.6 1v1.4l2.3-.8z"/><metadata><rdf:RDF xmlns:rdf="http://www.w3.org/1999/02/22-rdf-syntax-ns#" xmlns:rdfs="http://www.w3.org/2000/01/rdf-schema#" xmlns:dc="http://purl.org/dc/elements/1.1/"><rdf:Description about="https://iconscout.com/legal#licenses" dc:title="play,music" dc:description="play,music" dc:publisher="Iconscout" dc:date="2018-01-30" dc:format="image/svg+xml" dc:language="en"><dc:creator><rdf:Bag><rdf:li>Roundicons.com</rdf:li></rdf:Bag></dc:creator></rdf:Description></rdf:RDF></metadata></svg>